<?xml version="1.0" encoding="utf-8"?>
<!-- Generator: Adobe Illustrator 22.1.0, SVG Export Plug-In . SVG Version: 6.00 Build 0)  -->
<svg version="1.1" id="Слой_1" xmlns="http://www.w3.org/2000/svg" xmlns:xlink="http://www.w3.org/1999/xlink" x="0px" y="0px"
	 viewBox="0 0 1079.9 1080" style="enable-background:new 0 0 1079.9 1080;" xml:space="preserve">
<style type="text/css">
	.st0{fill:#FFFFFF;}
	.st1{stroke:#FFFFFF;stroke-miterlimit:10;}
	.st2{fill:#FFFFFF;stroke:#000000;stroke-miterlimit:10;}
</style>
<rect x="0" y="0" width="1080" height="1080"/>
<path class="st0" d="M652.7,64.8H427.3C370.3,64.8,324,117.7,324,183v49.8c0,2.6,2,4.7,4.4,4.7h99.8c2.4,0,4.4-2.1,4.4-4.7v-5.4
	v-22.4v-12.8c0-2.6-2-4.7-4.4-4.7l0,0c-2.4,0-4.4,2.1-4.4,4.7v30.5c0,2.6-2,4.7-4.4,4.7H345c-2.4,0-4.4-2.1-4.4-4.7v-15.9
	c0-65.3,46.3-118.2,103.3-118.2h192.2c57.1,0,103.3,52.9,103.3,118.2v15.9c0,2.6-2,4.7-4.4,4.7h-81.3c-2.4,0-4.4,2.1-4.4,4.7v0.6
	c0,2.6,2,4.7,4.4,4.7h97.9c2.4,0,4.4-2.1,4.4-4.7V183C756,117.7,709.7,64.8,652.7,64.8z"/>
<g>
	<path class="st0" d="M341.4,678l-7.3,5.9c-1.9-2-3.7-3.5-5.3-4.5c-1.6-1-3.9-1.5-6.8-1.5c-3.3,0-5.9,0.7-7.9,2.2
		c-2,1.5-3,3.4-3,5.7c0,2,0.9,3.8,2.7,5.3c1.8,1.5,4.8,3.2,9,5.1c4.3,1.8,7.6,3.5,10,5.1c2.4,1.6,4.3,3.3,5.8,5.2s2.7,3.9,3.4,6
		c0.7,2.1,1.1,4.4,1.1,6.7c0,5.5-2,10.2-6,14.1c-4,3.9-8.9,5.8-14.6,5.8c-5.6,0-10.5-1.5-14.7-4.6c-4.3-3-7.5-7.6-9.8-13.7l9.1-2.6
		c3.3,7.5,8.4,11.2,15.2,11.2c3.3,0,6-1,8.2-3c2.2-2,3.3-4.5,3.3-7.5c0-1.8-0.6-3.6-1.7-5.4c-1.1-1.8-2.6-3.3-4.3-4.5
		c-1.7-1.2-4.4-2.5-8.1-4.1c-3.7-1.5-6.6-2.9-8.6-4.2s-3.7-2.8-5.2-4.5c-1.5-1.8-2.5-3.5-3.2-5.2c-0.7-1.7-1-3.6-1-5.6
		c0-4.8,1.9-8.8,5.7-12.2c3.8-3.3,8.5-5,13.9-5c3.6,0,7.3,0.8,11,2.3C335.9,672.4,339,674.8,341.4,678z"/>
	<path class="st0" d="M361.6,715.2c0-5.9,2.3-11.1,7-15.7c4.6-4.6,10-6.8,16-6.8c6.2,0,11.6,2.2,16.2,6.7c4.6,4.5,6.9,9.8,6.9,15.8
		c0,6-2.3,11.4-6.8,16c-4.5,4.6-9.8,6.9-15.7,6.9c-6.4,0-11.9-2.3-16.5-6.8C364,726.7,361.6,721.4,361.6,715.2z M398.9,715.3
		c0-3.7-1.4-6.8-4.2-9.5c-2.8-2.7-6.1-4-9.9-4c-3.9,0-7.3,1.4-10.1,4.1c-2.8,2.7-4.2,6-4.2,9.8c0,3.6,1.4,6.8,4.3,9.5
		c2.9,2.7,6.2,4.1,10.1,4.1c3.8,0,7-1.4,9.8-4.2C397.5,722.2,398.9,719,398.9,715.3z"/>
	<path class="st0" d="M426.4,736.9v-43h8.9v7.1c2.6-2.9,5-5,7.1-6.3c2.1-1.3,4.5-2,7.1-2c3.9,0,7.2,1.3,10,3.9
		c2.8,2.6,4.1,5.7,4.1,9.3v31h-9.1v-28.4c0-2.3-0.8-4.3-2.3-5.8c-1.5-1.5-3.4-2.3-5.8-2.3c-3,0-5.6,1.3-7.8,3.8
		c-2.2,2.6-3.3,5.6-3.3,9.2v23.4H426.4z"/>
	<path class="st0" d="M521.2,693.9h8.9v41.3c0,6.1-2.1,11.2-6.3,15.5c-4.2,4.3-9.2,6.4-15.2,6.4c-4.5,0-8.7-1.2-12.4-3.7
		c-3.8-2.4-6.6-6.2-8.3-11.2h9.4c2.8,4.7,6.7,7,11.7,7c3.4,0,6.3-1.2,8.7-3.7s3.6-5.4,3.6-8.8v-8.1c-4.4,6.4-9.9,9.5-16.6,9.5
		c-5.5,0-10.3-2.3-14.4-6.8s-6.1-9.9-6.1-16.1s2-11.5,6-15.9c4-4.4,8.7-6.6,14.2-6.6c7.1,0,12.7,3.4,16.9,10.3V693.9z M522.5,715.4
		c0-4-1.4-7.4-4.2-10.1c-2.8-2.7-6.3-4.1-10.4-4.1c-3.8,0-7.1,1.4-10,4.2c-2.9,2.8-4.3,6.1-4.3,9.7c0,4,1.4,7.4,4.3,10.3
		c2.8,2.9,6.2,4.3,10.2,4.3c4,0,7.4-1.4,10.2-4.2C521,722.7,522.5,719.3,522.5,715.4z"/>
	<path class="st0" d="M636.5,678l-7.3,5.9c-1.9-2-3.7-3.5-5.3-4.5c-1.6-1-3.9-1.5-6.8-1.5c-3.3,0-5.9,0.7-7.9,2.2
		c-2,1.5-3,3.4-3,5.7c0,2,0.9,3.8,2.7,5.3c1.8,1.5,4.8,3.2,9,5.1c4.3,1.8,7.6,3.5,10,5.1c2.4,1.6,4.3,3.3,5.8,5.2s2.7,3.9,3.4,6
		c0.7,2.1,1.1,4.4,1.1,6.7c0,5.5-2,10.2-6,14.1c-4,3.9-8.9,5.8-14.6,5.8c-5.6,0-10.5-1.5-14.7-4.6c-4.3-3-7.5-7.6-9.8-13.7l9.1-2.6
		c3.3,7.5,8.4,11.2,15.2,11.2c3.3,0,6-1,8.2-3c2.2-2,3.3-4.5,3.3-7.5c0-1.8-0.6-3.6-1.7-5.4c-1.1-1.8-2.6-3.3-4.3-4.5
		c-1.7-1.2-4.4-2.5-8.1-4.1c-3.7-1.5-6.6-2.9-8.6-4.2s-3.7-2.8-5.2-4.5c-1.5-1.8-2.5-3.5-3.2-5.2c-0.7-1.7-1-3.6-1-5.6
		c0-4.8,1.9-8.8,5.7-12.2c3.8-3.3,8.5-5,13.9-5c3.6,0,7.3,0.8,11,2.3C630.9,672.4,634,674.8,636.5,678z"/>
	<path class="st0" d="M702,717.2h-36.7c0.8,4.4,2.6,7.6,5.4,9.7c2.8,2,5.9,3,9.2,3c5.1,0,9.4-2.1,12.9-6.4l6.6,5
		c-5,6.4-11.6,9.6-20,9.6c-6.4,0-11.7-2.2-16-6.6c-4.3-4.4-6.5-9.8-6.5-16.3c0-6.1,2.2-11.3,6.5-15.8c4.4-4.5,9.7-6.7,16-6.7
		c6.2,0,11.5,2.3,15.9,6.8C699.9,704.1,702,710,702,717.2z M666.2,709.9h26.3c-2.9-5.9-7.2-8.9-12.9-8.9
		C673.4,701.1,668.9,704,666.2,709.9z"/>
	<path class="st0" d="M726,681.4h9.1v12.5h9v8.3h-9v34.7H726v-34.7h-7.1v-8.4h7.1V681.4z"/>
	<path class="st0" d="M452.4,809.2l-6.7,6.6c-6.8-6.6-14.6-9.9-23.5-9.9c-7.8,0-14.3,2.5-19.4,7.5c-5.2,5-7.8,11.2-7.8,18.7
		c0,6.6,2.5,12.5,7.5,17.7c5,5.3,11.9,7.9,20.8,7.9c13.2,0,21.5-5.7,25-17.2h-17.9v-9.1h28.3c0,4.5-0.3,8.2-0.9,10.9
		c-0.6,2.7-1.9,5.7-3.8,8.9c-1.9,3.3-4.5,6.2-7.6,8.8c-3.2,2.6-6.6,4.4-10.2,5.5c-3.6,1.1-8,1.7-13,1.7c-11.5,0-20.6-3.6-27.4-10.8
		s-10.2-15.4-10.2-24.7c0-9.8,3.5-18.1,10.5-24.9c7-6.9,15.4-10.3,25.4-10.3c5.9,0,11.3,0.9,16.2,2.7
		C442.3,801,447.3,804.3,452.4,809.2z"/>
	<path class="st0" d="M490.4,822v8.9c2-3.5,4-6.1,5.9-7.7s4.4-2.4,7.5-2.4c0.9,0,2.1,0.2,3.8,0.6l-2.8,9.1c-1.7-0.3-2.9-0.5-3.4-0.5
		c-3.1,0-5.6,1.1-7.7,3.2c-2.1,2.1-3.1,4.8-3.1,8v23.8h-9.1v-43H490.4z"/>
	<path class="st0" d="M522,843.3c0-5.9,2.3-11.1,7-15.7c4.6-4.6,10-6.8,16-6.8c6.2,0,11.6,2.2,16.2,6.7c4.6,4.5,6.9,9.8,6.9,15.8
		c0,6-2.3,11.4-6.8,16c-4.5,4.6-9.8,6.9-15.7,6.9c-6.4,0-11.9-2.3-16.5-6.8C524.3,854.8,522,849.4,522,843.3z M559.3,843.3
		c0-3.7-1.4-6.8-4.2-9.5c-2.8-2.7-6.1-4-9.9-4c-3.9,0-7.3,1.4-10.1,4.1c-2.8,2.7-4.2,6-4.2,9.8c0,3.6,1.4,6.8,4.3,9.5
		c2.9,2.7,6.2,4.1,10.1,4.1c3.8,0,7-1.4,9.8-4.2C557.9,850.2,559.3,847,559.3,843.3z"/>
	<path class="st0" d="M586.8,822h9.1v24.2c0,7.5,3.3,11.2,9.8,11.2c2.9,0,5.2-1,6.9-3c1.7-2,2.6-4.7,2.6-8.2V822h9v25.7
		c0,5.4-1.8,9.8-5.3,13.3c-3.5,3.5-8,5.2-13.4,5.2c-5.6,0-10.1-1.7-13.5-5.2s-5.2-8-5.2-13.6V822z"/>
	<path class="st0" d="M656,822v8.6c4.3-6.6,9.9-9.8,16.6-9.8c5.5,0,10.3,2.2,14.3,6.6c4,4.4,6,9.7,6,15.9c0,6.2-2,11.6-6.1,16.1
		s-8.8,6.8-14.4,6.8c-3.2,0-6.3-0.8-9.2-2.5c-2.9-1.7-5.3-4.1-7.3-7.2v28.7h-9.1V822H656z M683.5,843.3c0-3.8-1.4-7.1-4.3-9.9
		c-2.8-2.8-6.2-4.2-10-4.2c-3.9,0-7.3,1.4-10.2,4.2c-2.9,2.8-4.3,6.1-4.3,9.9c0,3.9,1.4,7.3,4.2,10.2c2.8,2.9,6.2,4.3,10,4.3
		c4,0,7.4-1.4,10.2-4.3C682.1,850.7,683.5,847.3,683.5,843.3z"/>
</g>
<path class="st0" d="M824.7,653.4H319.9c-1.6,0-2.8-1.3-2.8-2.8v-8h507.6V653.4z"/>
<rect x="255.4" y="772.2" class="st0" width="569.2" height="10.8"/>
<rect x="254.5" y="901.8" class="st0" width="673.4" height="10.8"/>
<g>
	<path class="st1" d="M897.2,956.3l-43.3,25c-1,0.6-2.2,0.2-2.8-0.8l-6.4-11.1c-0.6-1-0.2-2.2,0.8-2.8l43.3-25
		c1-0.6,2.2-0.2,2.8,0.8l6.4,11.1C898.5,954.5,898.2,955.7,897.2,956.3z"/>
	<rect x="861.3" y="955.3" transform="matrix(0.866 -0.5 0.5 0.866 -365.6756 562.7944)" class="st1" width="12.2" height="16.9"/>
	<path class="st1" d="M906.5,948.3l-6.7,3.9c-1,0.6-2.2,0.2-2.8-0.8l-4.2-7.2c-0.6-1-0.2-2.2,0.8-2.8l6.7-3.9c1-0.6,2.2-0.2,2.8,0.8
		l4.2,7.2C907.8,946.5,907.4,947.8,906.5,948.3z"/>
</g>
<g>
	<g>
		<path class="st0" d="M284.5,259.2c-43.6,0-79.3,35.8-79.3,79.5v186.6c0,43.9,35.5,79.5,79.3,79.5h90.8c3.6,0,6.6-3,6.6-6.7V265.9
			c0-3.7-3-6.7-6.6-6.7H284.5z"/>
		<path d="M308.1,582.4c-47.4,0-85.7-38.9-85.7-86.9v-38.7c0-3.1,2.5-5.6,5.5-5.6h22h5h10.5c3.1,0,5.5,2.5,5.5,5.6v0
			c0,3.1-2.5,5.6-5.5,5.6h-9.9c-3.1,0-5.5,2.5-5.5,5.6v19.7c0,43.9,30.9,79.5,68.9,79.5h26.9c3.1,0,5.5-2.5,5.5-5.6V447.3
			c0-4.1-3.3-7.4-7.3-7.4h-89.1h-5h-22c-3.1,0-5.5-2.5-5.5-5.6v-65.7c0-47.8,38.6-86.9,85.7-86.9h51.2c3.1,0,5.5,2.5,5.5,5.6v117.1
			c0,4.1-3.3,7.4-7.3,7.4h-6.2h-8h-5c-3.1,0-5.5-2.5-5.5-5.6v0c0-3.1,2.5-5.6,5.5-5.6h5.7c4,0,7.3-3.3,7.3-7.4v-88.9
			c0-4.1-3.3-7.4-7.3-7.4h-25.1c-37.9,0-68.9,35.8-68.9,79.5v41.1c0,3.1,2.5,5.6,5.5,5.6h87.8h8h6.2c4,0,7.3,3.3,7.3,7.4v146.3
			c0,3.1-2.5,5.6-5.5,5.6H308.1z"/>
	</g>
	<path class="st0" d="M392.5,604.8h-6.2V259.2h6.2c3.9,0,7.1,3.2,7.1,7.1v331.4C399.6,601.6,396.4,604.8,392.5,604.8z"/>
</g>
<g>
	<g>
		<path class="st0" d="M795.5,259.2c43.6,0,79.3,35.8,79.3,79.5v186.6c0,43.9-35.5,79.5-79.3,79.5h-90.8c-3.6,0-6.6-3-6.6-6.7V265.9
			c0-3.7,3-6.7,6.6-6.7H795.5z"/>
		<path d="M771.9,582.4c47.4,0,85.7-38.9,85.7-86.9v-38.7c0-3.1-2.5-5.6-5.5-5.6h-22h-5h-10.5c-3.1,0-5.5,2.5-5.5,5.6v0
			c0,3.1,2.5,5.6,5.5,5.6h9.9c3.1,0,5.5,2.5,5.5,5.6v19.7c0,43.9-30.9,79.5-68.9,79.5h-26.9c-3.1,0-5.5-2.5-5.5-5.6V447.3
			c0-4.1,3.3-7.4,7.3-7.4h89.1h5h22c3.1,0,5.5-2.5,5.5-5.6v-65.7c0-47.8-38.6-86.9-85.7-86.9h-51.2c-3.1,0-5.5,2.5-5.5,5.6v117.1
			c0,4.1,3.3,7.4,7.3,7.4h6.2h8h5c3.1,0,5.5-2.5,5.5-5.6v0c0-3.1-2.5-5.6-5.5-5.6h-5.7c-4,0-7.3-3.3-7.3-7.4v-88.9
			c0-4.1,3.3-7.4,7.3-7.4h25.1c37.9,0,68.9,35.8,68.9,79.5v41.1c0,3.1-2.5,5.6-5.5,5.6h-87.8h-8h-6.2c-4,0-7.3,3.3-7.3,7.4v146.3
			c0,3.1,2.5,5.6,5.5,5.6H771.9z"/>
	</g>
	<path class="st0" d="M687.5,604.8h6.2V259.2h-6.2c-3.9,0-7.1,3.2-7.1,7.1v331.4C680.4,601.6,683.6,604.8,687.5,604.8z"/>
</g>
<path class="st0" d="M257.4,901.8c-32.8,0-59.4-26.6-59.4-59.4s26.6-59.4,59.4-59.4v-10.8c-38.8,0-70.2,31.4-70.2,70.2
	s31.4,70.2,70.2,70.2V901.8z"/>
<path class="st0" d="M822.6,642.6v10.8c32.8,0,59.4,26.6,59.4,59.4s-26.6,59.4-59.4,59.4V783c38.8,0,70.2-31.4,70.2-70.2
	S861.4,642.6,822.6,642.6z"/>
<path class="st0" d="M327.9,642.6h-10.8v-31.7c0-1.6,1.3-2.8,2.8-2.8h5.1c1.6,0,2.8,1.3,2.8,2.8V642.6z"/>
<g>
	<path class="st0" d="M833.3,981.1c-0.6,0-1.1,0.2-1.6,0.5c-83.6,55.4-183.9,87.6-291.7,87.6c-286.1,0-519.2-227-528.9-510.8
		C0.7,252.9,252.9,0.7,558.4,11.1c283.7,9.7,510.8,242.8,510.8,528.9c0,142.8-56.6,272.4-148.6,367.6c-1.8,1.9-0.5,5,2.1,5h6.9
		c0.8,0,1.6-0.3,2.1-0.9C1023.6,814.9,1080,684,1080,540C1080,242.7,839.8,1.6,542.9,0C243.3-1.6-1.6,243.3,0,542.9
		C1.6,839.8,242.7,1080,540,1080c112.7,0,217.3-34.5,303.9-93.6c2.4-1.6,1.2-5.4-1.7-5.4H833.3z"/>
</g>
<path class="st2" d="M853.8,987.6l-93,53.7c-1.6,0.9-3.5,0.4-4.4-1.2l-11.2-19.3c-0.9-1.6-0.4-3.5,1.2-4.4l93-53.7
	c1.6-0.9,3.5-0.4,4.4,1.2l11.2,19.3C855.9,984.7,855.3,986.7,853.8,987.6z"/>
<path class="st0" d="M468.1,399.4h-22.6c-2.8,0-5-2.2-5-5V381c0-2.8,2.2-5,5-5h22.6c2.8,0,5,2.2,5,5v13.4
	C473.1,397.1,470.9,399.4,468.1,399.4z"/>
<path class="st0" d="M468.1,432h-22.6c-2.8,0-5-2.2-5-5v-13.4c0-2.8,2.2-5,5-5h22.6c2.8,0,5,2.2,5,5V427
	C473.1,429.8,470.9,432,468.1,432z"/>
<path class="st0" d="M468.1,464.4h-22.6c-2.8,0-5-2.2-5-5V446c0-2.8,2.2-5,5-5h22.6c2.8,0,5,2.2,5,5v13.4
	C473.1,462.1,470.9,464.4,468.1,464.4z"/>
<path class="st0" d="M468.1,497h-22.6c-2.8,0-5-2.2-5-5v-13.4c0-2.8,2.2-5,5-5h22.6c2.8,0,5,2.2,5,5V492
	C473.1,494.8,470.9,497,468.1,497z"/>
<path class="st0" d="M468.1,529.6h-22.6c-2.8,0-5-2.2-5-5v-13.4c0-2.8,2.2-5,5-5h22.6c2.8,0,5,2.2,5,5v13.4
	C473.1,527.4,470.9,529.6,468.1,529.6z"/>
<path class="st0" d="M468.1,562h-22.6c-2.8,0-5-2.2-5-5v-13.4c0-2.8,2.2-5,5-5h22.6c2.8,0,5,2.2,5,5V557
	C473.1,559.8,470.9,562,468.1,562z"/>
<path class="st0" d="M468.1,594.6h-22.6c-2.8,0-5-2.2-5-5v-13.4c0-2.8,2.2-5,5-5h22.6c2.8,0,5,2.2,5,5v13.4
	C473.1,592.4,470.9,594.6,468.1,594.6z"/>
<path class="st0" d="M551.3,529.6h-22.6c-2.8,0-5-2.2-5-5v-13.4c0-2.8,2.2-5,5-5h22.6c2.8,0,5,2.2,5,5v13.4
	C556.3,527.4,554.1,529.6,551.3,529.6z"/>
<path class="st0" d="M551.3,562h-22.6c-2.8,0-5-2.2-5-5v-13.4c0-2.8,2.2-5,5-5h22.6c2.8,0,5,2.2,5,5V557
	C556.3,559.8,554.1,562,551.3,562z"/>
<path class="st0" d="M551.3,594.6h-22.6c-2.8,0-5-2.2-5-5v-13.4c0-2.8,2.2-5,5-5h22.6c2.8,0,5,2.2,5,5v13.4
	C556.3,592.4,554.1,594.6,551.3,594.6z"/>
<path class="st0" d="M509.6,497H487c-2.8,0-5-2.2-5-5v-13.4c0-2.8,2.2-5,5-5h22.6c2.8,0,5,2.2,5,5V492
	C514.6,494.8,512.4,497,509.6,497z"/>
<path class="st0" d="M509.6,529.6H487c-2.8,0-5-2.2-5-5v-13.4c0-2.8,2.2-5,5-5h22.6c2.8,0,5,2.2,5,5v13.4
	C514.6,527.4,512.4,529.6,509.6,529.6z"/>
<path class="st0" d="M509.6,497H487c-2.8,0-5-2.2-5-5v-13.4c0-2.8,2.2-5,5-5h22.6c2.8,0,5,2.2,5,5V492
	C514.6,494.8,512.4,497,509.6,497z"/>
<path class="st0" d="M509.6,464.4H487c-2.8,0-5-2.2-5-5V446c0-2.8,2.2-5,5-5h22.6c2.8,0,5,2.2,5,5v13.4
	C514.6,462.1,512.4,464.4,509.6,464.4z"/>
<path class="st0" d="M509.6,529.6H487c-2.8,0-5-2.2-5-5v-13.4c0-2.8,2.2-5,5-5h22.6c2.8,0,5,2.2,5,5v13.4
	C514.6,527.4,512.4,529.6,509.6,529.6z"/>
<path class="st0" d="M509.6,562H487c-2.8,0-5-2.2-5-5v-13.4c0-2.8,2.2-5,5-5h22.6c2.8,0,5,2.2,5,5V557
	C514.6,559.8,512.4,562,509.6,562z"/>
<path class="st0" d="M509.6,594.6H487c-2.8,0-5-2.2-5-5v-13.4c0-2.8,2.2-5,5-5h22.6c2.8,0,5,2.2,5,5v13.4
	C514.6,592.4,512.4,594.6,509.6,594.6z"/>
<path class="st0" d="M592.6,529.6H570c-2.8,0-5-2.2-5-5v-13.4c0-2.8,2.2-5,5-5h22.6c2.8,0,5,2.2,5,5v13.4
	C597.6,527.4,595.4,529.6,592.6,529.6z"/>
<path class="st0" d="M592.6,529.6H570c-2.8,0-5-2.2-5-5v-13.4c0-2.8,2.2-5,5-5h22.6c2.8,0,5,2.2,5,5v13.4
	C597.6,527.4,595.4,529.6,592.6,529.6z"/>
<path class="st0" d="M592.6,497H570c-2.8,0-5-2.2-5-5v-13.4c0-2.8,2.2-5,5-5h22.6c2.8,0,5,2.2,5,5V492
	C597.6,494.8,595.4,497,592.6,497z"/>
<path class="st0" d="M634.1,432h-22.6c-2.8,0-5-2.2-5-5v-13.4c0-2.8,2.2-5,5-5h22.6c2.8,0,5,2.2,5,5V427
	C639.1,429.8,636.9,432,634.1,432z"/>
<path class="st0" d="M634.1,464.6h-22.6c-2.8,0-5-2.2-5-5v-13.4c0-2.8,2.2-5,5-5h22.6c2.8,0,5,2.2,5,5v13.4
	C639.1,462.4,636.9,464.6,634.1,464.6z"/>
<path class="st0" d="M592.6,562H570c-2.8,0-5-2.2-5-5v-13.4c0-2.8,2.2-5,5-5h22.6c2.8,0,5,2.2,5,5V557
	C597.6,559.8,595.4,562,592.6,562z"/>
<path class="st0" d="M592.6,594.6H570c-2.8,0-5-2.2-5-5v-13.4c0-2.8,2.2-5,5-5h22.6c2.8,0,5,2.2,5,5v13.4
	C597.6,592.4,595.4,594.6,592.6,594.6z"/>
<path class="st0" d="M634.1,529.6h-22.6c-2.8,0-5-2.2-5-5v-13.4c0-2.8,2.2-5,5-5h22.6c2.8,0,5,2.2,5,5v13.4
	C639.1,527.4,636.9,529.6,634.1,529.6z"/>
<path class="st0" d="M634.1,529.6h-22.6c-2.8,0-5-2.2-5-5v-13.4c0-2.8,2.2-5,5-5h22.6c2.8,0,5,2.2,5,5v13.4
	C639.1,527.4,636.9,529.6,634.1,529.6z"/>
<path class="st0" d="M634.1,497h-22.6c-2.8,0-5-2.2-5-5v-13.4c0-2.8,2.2-5,5-5h22.6c2.8,0,5,2.2,5,5V492
	C639.1,494.8,636.9,497,634.1,497z"/>
<path class="st0" d="M634.1,562h-22.6c-2.8,0-5-2.2-5-5v-13.4c0-2.8,2.2-5,5-5h22.6c2.8,0,5,2.2,5,5V557
	C639.1,559.8,636.9,562,634.1,562z"/>
<path class="st0" d="M634.1,594.6h-22.6c-2.8,0-5-2.2-5-5v-13.4c0-2.8,2.2-5,5-5h22.6c2.8,0,5,2.2,5,5v13.4
	C639.1,592.4,636.9,594.6,634.1,594.6z"/>
</svg>
