<?xml version="1.0" encoding="UTF-8" standalone="no"?>
<!DOCTYPE svg PUBLIC "-//W3C//DTD SVG 1.1//EN" "http://www.w3.org/Graphics/SVG/1.1/DTD/svg11.dtd">
<svg version="1.1" xmlns="http://www.w3.org/2000/svg" xmlns:xlink="http://www.w3.org/1999/xlink" preserveAspectRatio="xMidYMid meet" viewBox="0 0 640 640" width="640" height="640"><defs><path d="M503.75 111.54C487.5 136.03 458.84 143.03 433.12 128.81C431.57 128.2 423.8 125.14 409.82 119.63C419.68 108.3 425.16 102 426.25 100.74C442.5 76.25 471.17 69.24 496.89 83.46C498.44 84.08 506.21 87.13 520.19 92.64C510.33 103.98 504.85 110.28 503.75 111.54Z" id="daFBXWhx"></path><path d="M462.74 215.13C434.4 222.91 408.18 209.34 398.16 181.72C397.39 180.24 393.54 172.82 386.63 159.48C401.51 157.42 409.77 156.28 411.43 156.05C439.77 148.26 465.98 161.84 476.01 189.46C476.78 190.94 480.62 198.35 487.54 211.69C472.66 213.75 464.39 214.9 462.74 215.13Z" id="cxebOCKQj"></path><path d="M385.06 267.93C356.48 261.09 340.04 236.58 344.56 207.54C344.6 205.87 344.81 197.53 345.18 182.51C359.22 187.87 367.02 190.86 368.58 191.45C397.16 198.3 413.6 222.81 409.07 251.84C409.03 253.51 408.83 261.86 408.46 276.88C394.42 271.51 386.62 268.53 385.06 267.93Z" id="a1gcpXwpHy"></path><path d="M345.43 310.46C316.11 312.31 293.19 293.71 288.99 264.63C288.53 263.02 286.28 254.98 282.21 240.52C297.2 241.52 305.53 242.08 307.2 242.19C336.52 240.33 359.45 258.94 363.65 288.02C364.1 289.63 366.36 297.67 370.42 312.13C355.43 311.13 347.1 310.57 345.43 310.46Z" id="hUKTk3StA"></path><path d="M339.01 375.93C311.47 386.2 284.15 375.03 271.7 348.39C270.81 346.98 266.32 339.94 258.25 327.27C272.89 323.89 281.03 322.02 282.65 321.64C310.19 311.38 337.51 322.55 349.96 349.18C350.85 350.59 355.34 357.63 363.41 370.3C348.77 373.68 340.63 375.56 339.01 375.93Z" id="fjiRkI8RM"></path><path d="M360.13 451.48C335.55 467.58 306.43 462.72 288.41 439.51C287.22 438.34 281.29 432.46 270.61 421.89C284.14 415.36 291.66 411.74 293.16 411.01C317.74 394.91 346.86 399.77 364.89 422.98C366.07 424.16 372.01 430.03 382.68 440.6C369.15 447.13 361.63 450.76 360.13 451.48Z" id="i24pG26ps1"></path><path d="M387.13 21.94C404.51 45.64 401.21 74.96 378.99 94.19C377.88 95.44 372.33 101.68 362.35 112.91C355.1 99.74 351.08 92.43 350.27 90.97C332.88 67.28 336.18 37.94 358.4 18.71C359.51 17.46 365.06 11.23 375.05 0C382.29 13.16 386.32 20.47 387.13 21.94Z" id="bBniqPCuO"></path><path d="M281.92 46.42C309.45 56.73 322.74 83.08 314.69 111.34C314.45 112.99 313.22 121.25 311 136.11C297.73 129.06 290.36 125.14 288.88 124.36C261.35 114.05 248.06 87.7 256.11 59.44C256.36 57.79 257.59 49.53 259.8 34.67C273.07 41.72 280.45 45.64 281.92 46.42Z" id="hKx9BkJa9"></path><path d="M202.78 114.18C231.57 108.24 256.85 123.46 265.09 151.67C265.76 153.2 269.12 160.84 275.16 174.6C260.17 175.7 251.85 176.31 250.18 176.43C221.4 182.37 196.11 167.15 187.88 138.94C187.21 137.41 183.85 129.77 177.81 116.01C192.79 114.91 201.12 114.3 202.78 114.18Z" id="g3VAENxvl"></path><path d="M157.65 189.2C184.64 177.58 212.48 187.39 226.23 213.36C227.19 214.73 232.02 221.54 240.72 233.79C226.26 237.89 218.23 240.17 216.62 240.62C189.63 252.25 161.79 242.43 148.04 216.46C147.08 215.1 142.25 208.29 133.55 196.03C148.01 191.93 156.04 189.66 157.65 189.2Z" id="c2dIAVQ3l2"></path><path d="M139.75 268.34C160.64 247.68 190.14 246.66 212.42 265.82C213.82 266.74 220.8 271.31 233.36 279.56C221.4 288.65 214.75 293.7 213.42 294.71C192.53 315.37 163.03 316.39 140.75 297.22C139.35 296.31 132.37 291.73 119.81 283.49C131.77 274.4 138.42 269.35 139.75 268.34Z" id="gFG9rtHrP"></path><path d="M137.05 358.92C152.4 333.87 180.8 325.83 207.02 339.13C208.59 339.69 216.47 342.47 230.64 347.48C221.19 359.16 215.94 365.65 214.9 366.95C199.54 392.01 171.14 400.05 144.92 386.74C143.35 386.19 135.48 383.41 121.3 378.4C130.75 366.72 136 360.22 137.05 358.92Z" id="e17kqbpf5r"></path><path d="M154.28 460.02C158.55 430.94 181.5 412.38 210.82 414.3C212.49 414.2 220.82 413.65 235.81 412.68C231.72 427.14 229.44 435.17 228.99 436.77C224.72 465.86 201.78 484.42 172.45 482.49C170.78 482.6 162.46 483.14 147.46 484.12C151.56 469.66 153.83 461.63 154.28 460.02Z" id="aKHL1UYnj"></path><path d="M190.38 551.91C185.22 522.98 201.11 498.11 229.54 490.63C231.08 490 238.81 486.85 252.72 481.18C253.42 496.19 253.81 504.52 253.88 506.19C259.05 535.12 243.15 559.99 214.73 567.46C213.19 568.09 205.46 571.25 191.54 576.92C190.85 561.91 190.46 553.57 190.38 551.91Z" id="b24jrdOD"></path><path d="M504.3 630.57C505.51 624.27 501.36 618.2 495.08 617C349.68 589.24 253.5 472.45 255.75 326.34C257.09 239.59 311.2 162.89 390.4 135.47C396.45 133.36 399.67 126.76 397.57 120.71C395.45 114.66 388.87 111.44 382.81 113.54C294.43 144.17 234.04 229.54 232.55 325.98C230.12 483.74 333.87 609.85 490.73 639.79C491.47 639.93 492.2 640 492.92 640C498.38 640 503.24 636.14 504.3 630.57Z" id="dPcAXDoNe"></path></defs><g><g><g><use xlink:href="#daFBXWhx" opacity="1" fill="#f1b501" fill-opacity="1"></use><g><use xlink:href="#daFBXWhx" opacity="1" fill-opacity="0" stroke="#000000" stroke-width="1" stroke-opacity="0"></use></g></g><g><use xlink:href="#cxebOCKQj" opacity="1" fill="#f1b501" fill-opacity="1"></use><g><use xlink:href="#cxebOCKQj" opacity="1" fill-opacity="0" stroke="#000000" stroke-width="1" stroke-opacity="0"></use></g></g><g><use xlink:href="#a1gcpXwpHy" opacity="1" fill="#f1b501" fill-opacity="1"></use><g><use xlink:href="#a1gcpXwpHy" opacity="1" fill-opacity="0" stroke="#000000" stroke-width="1" stroke-opacity="0"></use></g></g><g><use xlink:href="#hUKTk3StA" opacity="1" fill="#f1b501" fill-opacity="1"></use><g><use xlink:href="#hUKTk3StA" opacity="1" fill-opacity="0" stroke="#000000" stroke-width="1" stroke-opacity="0"></use></g></g><g><use xlink:href="#fjiRkI8RM" opacity="1" fill="#f1b501" fill-opacity="1"></use><g><use xlink:href="#fjiRkI8RM" opacity="1" fill-opacity="0" stroke="#000000" stroke-width="1" stroke-opacity="0"></use></g></g><g><use xlink:href="#i24pG26ps1" opacity="1" fill="#f1b501" fill-opacity="1"></use><g><use xlink:href="#i24pG26ps1" opacity="1" fill-opacity="0" stroke="#000000" stroke-width="1" stroke-opacity="0"></use></g></g><g><use xlink:href="#bBniqPCuO" opacity="1" fill="#f1b501" fill-opacity="1"></use><g><use xlink:href="#bBniqPCuO" opacity="1" fill-opacity="0" stroke="#000000" stroke-width="1" stroke-opacity="0"></use></g></g><g><use xlink:href="#hKx9BkJa9" opacity="1" fill="#f1b501" fill-opacity="1"></use><g><use xlink:href="#hKx9BkJa9" opacity="1" fill-opacity="0" stroke="#000000" stroke-width="1" stroke-opacity="0"></use></g></g><g><use xlink:href="#g3VAENxvl" opacity="1" fill="#f1b501" fill-opacity="1"></use><g><use xlink:href="#g3VAENxvl" opacity="1" fill-opacity="0" stroke="#000000" stroke-width="1" stroke-opacity="0"></use></g></g><g><use xlink:href="#c2dIAVQ3l2" opacity="1" fill="#f1b501" fill-opacity="1"></use><g><use xlink:href="#c2dIAVQ3l2" opacity="1" fill-opacity="0" stroke="#000000" stroke-width="1" stroke-opacity="0"></use></g></g><g><use xlink:href="#gFG9rtHrP" opacity="1" fill="#f1b501" fill-opacity="1"></use><g><use xlink:href="#gFG9rtHrP" opacity="1" fill-opacity="0" stroke="#000000" stroke-width="1" stroke-opacity="0"></use></g></g><g><use xlink:href="#e17kqbpf5r" opacity="1" fill="#f1b501" fill-opacity="1"></use><g><use xlink:href="#e17kqbpf5r" opacity="1" fill-opacity="0" stroke="#000000" stroke-width="1" stroke-opacity="0"></use></g></g><g><use xlink:href="#aKHL1UYnj" opacity="1" fill="#f1b501" fill-opacity="1"></use><g><use xlink:href="#aKHL1UYnj" opacity="1" fill-opacity="0" stroke="#000000" stroke-width="1" stroke-opacity="0"></use></g></g><g><use xlink:href="#b24jrdOD" opacity="1" fill="#f1b501" fill-opacity="1"></use><g><use xlink:href="#b24jrdOD" opacity="1" fill-opacity="0" stroke="#000000" stroke-width="1" stroke-opacity="0"></use></g></g><g><use xlink:href="#dPcAXDoNe" opacity="1" fill="#f4c44e" fill-opacity="1"></use><g><use xlink:href="#dPcAXDoNe" opacity="1" fill-opacity="0" stroke="#000000" stroke-width="1" stroke-opacity="0"></use></g></g></g></g></svg>